<?xml version="1.0" encoding="UTF-8"?>
<svg version="1.1" xmlns="http://www.w3.org/2000/svg" width="346" height="346">
<path d="M0 0 C1.14758789 0.05365723 1.14758789 0.05365723 2.31835938 0.10839844 C27.94344331 1.45760539 51.33858383 8.13857959 74 20 C74.93585938 20.48339844 75.87171875 20.96679688 76.8359375 21.46484375 C82.26125325 24.33660179 87.49779385 27.47635219 92.6875 30.75 C93.31269531 31.13913574 93.93789063 31.52827148 94.58203125 31.92919922 C96.09155195 32.8976109 97.55140093 33.94262842 99 35 C99 35.66 99 36.32 99 37 C99.515625 37.226875 100.03125 37.45375 100.5625 37.6875 C103.89547005 39.48217618 107.14703671 41.49965015 110 44 C110 44.66 110 45.32 110 46 C110.66 46 111.32 46 112 46 C112 46.66 112 47.32 112 48 C113.32 48.66 114.64 49.32 116 50 C116 50.66 116 51.32 116 52 C116.66 52 117.32 52 118 52 C118 52.66 118 53.32 118 54 C118.66 54 119.32 54 120 54 C120 54.66 120 55.32 120 56 C120.66 56 121.32 56 122 56 C122 56.66 122 57.32 122 58 C122.66 58 123.32 58 124 58 C124.66 59.65 125.32 61.3 126 63 C126.66 63 127.32 63 128 63 C131 66.46153846 131 66.46153846 131 69 C131.66 69 132.32 69 133 69 C134.66618621 71.1748756 136.18984158 73.3371198 137.6875 75.625 C138.13520752 76.30433594 138.58291504 76.98367187 139.04418945 77.68359375 C143.2664125 84.21029237 146.70158854 90.95871029 150 98 C150.60107547 99.2287414 151.2039711 100.45659392 151.80859375 101.68359375 C160.11822731 118.73412596 164.31662166 134.99774411 164.40625 153.984375 C164.41473213 155.20693874 164.41473213 155.20693874 164.42338562 156.45420074 C164.45325606 160.77725991 164.47178035 165.10018784 164.48046875 169.42333984 C164.48920069 172.95338723 164.5168477 176.48244658 164.5625 180.01220703 C165.04197956 217.81991232 165.04197956 217.81991232 158 235 C157.55272804 236.13477783 157.55272804 236.13477783 157.09642029 237.29248047 C153.89863133 245.37738093 150.12748358 252.91858739 145.59765625 260.35546875 C144.2299252 262.61941477 143.01372252 264.89631306 141.8125 267.25 C137.73634163 274.679787 132.21387599 281.34387597 127 288 C126.53207031 288.60150879 126.06414062 289.20301758 125.58203125 289.82275391 C124.4363878 291.25522817 123.2238772 292.63376209 122 294 C121.34 294 120.68 294 120 294 C120 294.66 120 295.32 120 296 C119.34 296 118.68 296 118 296 C118 296.66 118 297.32 118 298 C117.34 298 116.68 298 116 298 C116 298.66 116 299.32 116 300 C115.34 300 114.68 300 114 300 C114 300.66 114 301.32 114 302 C113.34 302 112.68 302 112 302 C112 302.66 112 303.32 112 304 C109.99623058 305.75405955 107.98762038 307.38557634 105.875 309 C105.24335938 309.48694336 104.61171875 309.97388672 103.9609375 310.47558594 C101.98086721 311.99305052 99.99158833 313.49769461 98 315 C97.40219727 315.45568359 96.80439453 315.91136719 96.18847656 316.38085938 C87.86184457 322.69697126 79.51138538 327.60261292 70 332 C68.95328125 332.51175781 67.9065625 333.02351563 66.828125 333.55078125 C60.73305683 336.48460138 54.5563293 338.98865943 48.1875 341.25 C47.49422607 341.4962915 46.80095215 341.74258301 46.08666992 341.99633789 C38.81409337 344.51146262 32.09318545 346.24016248 24.35668945 346.32226562 C23.63822845 346.33219543 22.91976746 346.34212524 22.17953491 346.35235596 C19.82407633 346.38133384 17.46888817 346.39516717 15.11328125 346.40625 C13.8893419 346.41473213 13.8893419 346.41473213 12.6406765 346.42338562 C8.31113802 346.45328293 3.98173099 346.47178921 -0.34790039 346.48046875 C-3.88478351 346.48919541 -7.42067906 346.51681773 -10.95727539 346.5625 C-48.34708988 347.03618289 -48.34708988 347.03618289 -66 340 C-67.50835757 339.44648518 -69.01804308 338.89657529 -70.52905273 338.3503418 C-87.50559251 332.18844465 -103.10114998 322.41480023 -117 311 C-119.49045755 309.11731189 -121.98691934 307.24316258 -124.48828125 305.375 C-124.98714844 304.92125 -125.48601562 304.4675 -126 304 C-126 303.34 -126 302.68 -126 302 C-126.66 302 -127.32 302 -128 302 C-128 301.34 -128 300.68 -128 300 C-128.66 300 -129.32 300 -130 300 C-130 299.34 -130 298.68 -130 298 C-130.66 298 -131.32 298 -132 298 C-132 297.34 -132 296.68 -132 296 C-132.66 296 -133.32 296 -134 296 C-136.76202742 293.02962999 -139.21370279 289.804378 -141.71923828 286.61621094 C-142.94868337 285.06475716 -144.20623163 283.5356998 -145.46484375 282.0078125 C-169.93101585 251.62801587 -181.24345615 213.81000496 -181.1875 175.25 C-181.18722809 174.54345276 -181.18695618 173.83690552 -181.18667603 173.10894775 C-181.16867222 162.9366543 -180.89338552 153.02310959 -179 143 C-178.79375 141.83597656 -178.5875 140.67195312 -178.375 139.47265625 C-174.72385054 120.69827976 -167.14684462 103.66633652 -158 87 C-157.54496094 86.12988281 -157.08992188 85.25976562 -156.62109375 84.36328125 C-154.0662722 79.53188603 -151.07239328 75.33834601 -147.640625 71.0859375 C-146.19943204 69.2535636 -144.92739346 67.40837542 -143.6875 65.4375 C-143.130625 64.633125 -142.57375 63.82875 -142 63 C-141.34 63 -140.68 63 -140 63 C-139.71125 62.401875 -139.4225 61.80375 -139.125 61.1875 C-138 59 -138 59 -136 56 C-135.34 56 -134.68 56 -134 56 C-134 55.34 -134 54.68 -134 54 C-133.34 54 -132.68 54 -132 54 C-132 53.34 -132 52.68 -132 52 C-131.34 52 -130.68 52 -130 52 C-130 51.34 -130 50.68 -130 50 C-129.34 50 -128.68 50 -128 50 C-128 49.34 -128 48.68 -128 48 C-127.34 48 -126.68 48 -126 48 C-126 47.34 -126 46.68 -126 46 C-121.52941176 42 -121.52941176 42 -119 42 C-119 41.34 -119 40.68 -119 40 C-115.53846154 37 -115.53846154 37 -113 37 C-113 36.34 -113 35.68 -113 35 C-110.5349759 33.18784119 -108.07699702 31.51526013 -105.5 29.875 C-104.34890747 29.13793823 -104.34890747 29.13793823 -103.17456055 28.38598633 C-95.71113529 23.68758607 -88.01093855 19.67415901 -80 16 C-79.38495605 15.71785645 -78.76991211 15.43571289 -78.13623047 15.14501953 C-53.36038477 3.91215548 -27.23771183 -1.3329093 0 0 Z " fill="#010101" transform="translate(182,0)"/>
<path d="M0 0 C16.70625 -0.0825 33.4125 -0.165 50.625 -0.25 C55.85424316 -0.28641602 61.08348633 -0.32283203 66.47119141 -0.36035156 C72.97338867 -0.37841797 72.97338867 -0.37841797 76.03988647 -0.3817749 C78.13228788 -0.38782321 80.22467747 -0.40168954 82.31698608 -0.42230225 C102.77352098 -0.61334292 127.4194525 -0.76709716 143.34765625 14.1875 C149.92594426 21.40339985 154.25628855 28.64249989 157 38 C157.61875 39.8253125 157.61875 39.8253125 158.25 41.6875 C161.27346453 54.95261014 158.96567652 69.68603728 152.5625 81.55859375 C143.81139458 95.23219597 130.35148832 102.80183789 115 107 C111.3147057 107.63081614 107.73751199 107.98416308 104 108 C104 108.66 104 109.32 104 110 C104.87785156 110.25394531 105.75570312 110.50789063 106.66015625 110.76953125 C127.3303925 118.38488145 139.88425177 142.4791306 151 160 C151.51353027 160.80808105 152.02706055 161.61616211 152.55615234 162.44873047 C155.04257794 166.3651107 157.51985694 170.28709423 159.98828125 174.21484375 C162.12153844 177.60927186 164.26628592 180.99612785 166.41796875 184.37890625 C166.97540771 185.25667725 167.53284668 186.13444824 168.10717773 187.03881836 C169.18445392 188.73469987 170.26333751 190.42956161 171.34399414 192.12329102 C171.82344482 192.87924561 172.30289551 193.6352002 172.796875 194.4140625 C173.43641113 195.41880615 173.43641113 195.41880615 174.08886719 196.44384766 C175 198 175 198 175 199 C147.02266596 202.1454237 147.02266596 202.1454237 139.35449219 197.34326172 C135.09997817 192.85718852 132.67150974 187.41782568 130.25976562 181.78369141 C128.2588664 177.36232456 125.60043251 173.41947931 122.9375 169.375 C121.94397835 167.80505063 120.95307905 166.23343859 119.96484375 164.66015625 C100.67379861 132.03568605 100.67379861 132.03568605 70 112 C68.54293083 111.88650152 67.08155041 111.82398525 65.62036133 111.79467773 C64.72740356 111.77449585 63.8344458 111.75431396 62.91442871 111.73352051 C61.97973755 111.71704468 61.04504639 111.70056885 60.08203125 111.68359375 C59.22009155 111.66494263 58.35815186 111.6462915 57.47009277 111.6270752 C54.25099923 111.55878839 51.03173735 111.49863272 47.8125 111.4375 C37.0153125 111.2209375 37.0153125 111.2209375 26 111 C26 140.04 26 169.08 26 199 C17.42 199 8.84 199 0 199 C0 133.33 0 67.66 0 0 Z " fill="#FBFBFB" transform="translate(51,71)"/>
<path d="M0 0 C17.32700563 -0.16043524 17.32700563 -0.16043524 24.8125 -0.1953125 C29.88559063 -0.21906316 34.9583878 -0.24690805 40.03125 -0.30175781 C44.12915217 -0.34577979 48.22673891 -0.36925343 52.32485962 -0.37950897 C53.87469436 -0.38680082 55.42451529 -0.40103386 56.97421265 -0.42292023 C70.45866698 -0.60548214 84.16561111 0.42966867 95.49609375 8.53515625 C97 10 97 10 98 13 C98.66 13 99.32 13 100 13 C105.74801049 20.36463844 106.81067065 27.92048867 106 37 C104.0164042 47.07724583 99.27084841 53.97283919 91 60 C79.9834794 66.30910666 68.45264372 66.27887943 56.15234375 66.1953125 C54.52853063 66.19157618 52.90471524 66.18873214 51.28089905 66.18673706 C47.03453196 66.1791493 42.78830458 66.15954329 38.54199219 66.1373291 C33.43238461 66.11314133 28.32272997 66.10406653 23.21308136 66.09242249 C15.4752908 66.07311546 7.73780599 66.0347593 0 66 C0 44.22 0 22.44 0 0 Z " fill="#030303" transform="translate(77,93)"/>
<path d="M0 0 C0.33 0 0.66 0 1 0 C1.35291102 7.17490096 0.51638824 13.26537966 -1.5625 20.125 C-1.8313501 21.0337085 -2.1002002 21.94241699 -2.37719727 22.87866211 C-6.01210322 34.78222163 -10.92585203 45.7226351 -17.40234375 56.35546875 C-18.7700748 58.61941477 -19.98627748 60.89631306 -21.1875 63.25 C-25.26365837 70.679787 -30.78612401 77.34387597 -36 84 C-36.46792969 84.60150879 -36.93585938 85.20301758 -37.41796875 85.82275391 C-38.5636122 87.25522817 -39.7761228 88.63376209 -41 90 C-41.66 90 -42.32 90 -43 90 C-43 90.66 -43 91.32 -43 92 C-43.66 92 -44.32 92 -45 92 C-45 92.66 -45 93.32 -45 94 C-45.66 94 -46.32 94 -47 94 C-47 94.66 -47 95.32 -47 96 C-47.66 96 -48.32 96 -49 96 C-49 96.66 -49 97.32 -49 98 C-49.66 98 -50.32 98 -51 98 C-51 98.66 -51 99.32 -51 100 C-53.00376942 101.75405955 -55.01237962 103.38557634 -57.125 105 C-57.75664062 105.48694336 -58.38828125 105.97388672 -59.0390625 106.47558594 C-61.01913279 107.99305052 -63.00841167 109.49769461 -65 111 C-65.8967041 111.68352539 -65.8967041 111.68352539 -66.81152344 112.38085938 C-75.13815543 118.69697126 -83.48861462 123.60261292 -93 128 C-94.04671875 128.51175781 -95.0934375 129.02351562 -96.171875 129.55078125 C-102.26694317 132.48460138 -108.4436707 134.98865943 -114.8125 137.25 C-115.50577393 137.4962915 -116.19904785 137.74258301 -116.91333008 137.99633789 C-129.44392071 142.32987748 -129.44392071 142.32987748 -136 142.125 C-136.763125 142.10695313 -137.52625 142.08890625 -138.3125 142.0703125 C-138.869375 142.04710937 -139.42625 142.02390625 -140 142 C-136.70421858 139.80281239 -133.72377432 139.10670159 -129.9375 138.25 C-102.49992832 131.61914915 -78.36906551 119.5176718 -57 101 C-56.15953125 100.28199219 -55.3190625 99.56398438 -54.453125 98.82421875 C-38.65813271 85.01586369 -26.58444251 68.57392447 -17 50 C-16.68579102 49.39220703 -16.37158203 48.78441406 -16.04785156 48.15820312 C-8.31844698 32.9633651 -2.68005695 16.84607223 0 0 Z " fill="#000000" transform="translate(345,204)"/>
<path d="M0 0 C0.33 0 0.66 0 1 0 C1.35292366 7.17515796 0.51578426 13.26504586 -1.5625 20.125 C-1.8298999 21.0315332 -2.0972998 21.93806641 -2.37280273 22.87207031 C-5.91453983 34.49591858 -10.71907225 45.58002769 -17 56 C-17.66 56 -18.32 56 -19 56 C-17.62646814 51.5644971 -15.86493695 47.53623372 -13.8125 43.375 C-7.20346968 29.52617294 -2.41194867 15.16082021 0 0 Z " fill="#6E6E6E" transform="translate(345,204)"/>
<path d="M0 0 C1.32 0.66 2.64 1.32 4 2 C3.67 3.32 3.34 4.64 3 6 C2.34 6 1.68 6 1 6 C1 5.34 1 4.68 1 4 C0.34 4 -0.32 4 -1 4 C-0.67 2.68 -0.34 1.36 0 0 Z " fill="#000000" transform="translate(49,292)"/>
</svg>
